<mxfile host="app.diagrams.net" modified="2021-10-14T07:45:01.337Z" agent="5.0 (Windows NT 10.0; Win64; x64) AppleWebKit/537.36 (KHTML, like Gecko) Chrome/94.0.4606.81 Safari/537.36" etag="kP6ibZiBABllZ_bj7x7v" version="15.5.2" type="github">
  <diagram id="_VH7Ez_JP6WW_cBKEvmy" name="Page-1">
    <mxGraphModel dx="1185" dy="1035" grid="1" gridSize="10" guides="1" tooltips="1" connect="1" arrows="1" fold="1" page="0" pageScale="1" pageWidth="850" pageHeight="1100" math="0" shadow="0">
      <root>
        <mxCell id="0" />
        <mxCell id="1" parent="0" />
        <mxCell id="biMLxc0D92DYTLY_nHQ8-123" value="" style="rounded=0;whiteSpace=wrap;html=1;dashed=1;hachureGap=4;pointerEvents=0;fontSize=10;fontColor=#007FFF;strokeColor=default;fillColor=none;" parent="1" vertex="1">
          <mxGeometry x="598" y="801" width="345" height="227" as="geometry" />
        </mxCell>
        <mxCell id="biMLxc0D92DYTLY_nHQ8-103" value="" style="rounded=0;whiteSpace=wrap;html=1;dashed=1;hachureGap=4;pointerEvents=0;fontSize=10;fontColor=#007FFF;strokeColor=default;fillColor=none;" parent="1" vertex="1">
          <mxGeometry x="100" y="87" width="870" height="317" as="geometry" />
        </mxCell>
        <mxCell id="biMLxc0D92DYTLY_nHQ8-101" value="" style="rounded=0;whiteSpace=wrap;html=1;dashed=1;hachureGap=4;pointerEvents=0;fontSize=10;fontColor=#007FFF;strokeColor=default;fillColor=none;" parent="1" vertex="1">
          <mxGeometry x="579" y="140" width="337" height="250" as="geometry" />
        </mxCell>
        <mxCell id="biMLxc0D92DYTLY_nHQ8-95" value="" style="endArrow=block;startArrow=block;endFill=1;startFill=1;html=1;startSize=14;endSize=14;sourcePerimeterSpacing=8;targetPerimeterSpacing=8;fontSize=10;fontColor=#007FFF;" parent="1" target="biMLxc0D92DYTLY_nHQ8-58" edge="1">
          <mxGeometry width="160" relative="1" as="geometry">
            <mxPoint x="233" y="870" as="sourcePoint" />
            <mxPoint x="393" y="870" as="targetPoint" />
          </mxGeometry>
        </mxCell>
        <mxCell id="biMLxc0D92DYTLY_nHQ8-96" value="&lt;font color=&quot;#000000&quot;&gt;application data exchange&lt;br&gt;encrypted by master secret&lt;/font&gt;" style="edgeLabel;html=1;align=center;verticalAlign=middle;resizable=0;points=[];fontSize=10;fontColor=#007FFF;" parent="biMLxc0D92DYTLY_nHQ8-95" vertex="1" connectable="0">
          <mxGeometry x="-0.2354" y="-1" relative="1" as="geometry">
            <mxPoint x="28" y="-21" as="offset" />
          </mxGeometry>
        </mxCell>
        <mxCell id="biMLxc0D92DYTLY_nHQ8-2" value="Https Server" style="shape=umlLifeline;perimeter=lifelinePerimeter;whiteSpace=wrap;html=1;container=1;collapsible=0;recursiveResize=0;outlineConnect=0;hachureGap=4;pointerEvents=0;" parent="1" vertex="1">
          <mxGeometry x="195" y="110" width="80" height="290" as="geometry" />
        </mxCell>
        <mxCell id="biMLxc0D92DYTLY_nHQ8-7" value="generate server.key&lt;br&gt;(server private key)" style="edgeStyle=orthogonalEdgeStyle;html=1;align=left;spacingLeft=2;endArrow=block;rounded=0;entryX=1;entryY=0;startSize=14;endSize=14;sourcePerimeterSpacing=8;targetPerimeterSpacing=8;" parent="biMLxc0D92DYTLY_nHQ8-2" edge="1">
          <mxGeometry relative="1" as="geometry">
            <mxPoint x="40" y="60" as="sourcePoint" />
            <Array as="points">
              <mxPoint x="65" y="60" />
            </Array>
            <mxPoint x="40" y="80" as="targetPoint" />
          </mxGeometry>
        </mxCell>
        <mxCell id="biMLxc0D92DYTLY_nHQ8-8" value="generate server.csr&lt;br&gt;(cert sign request)&lt;br&gt;include server public key" style="edgeStyle=orthogonalEdgeStyle;html=1;align=left;spacingLeft=2;endArrow=block;rounded=0;entryX=1;entryY=0;startSize=14;endSize=14;sourcePerimeterSpacing=8;targetPerimeterSpacing=8;" parent="biMLxc0D92DYTLY_nHQ8-2" edge="1">
          <mxGeometry relative="1" as="geometry">
            <mxPoint x="40" y="100" as="sourcePoint" />
            <Array as="points">
              <mxPoint x="65" y="100" />
            </Array>
            <mxPoint x="40" y="120" as="targetPoint" />
          </mxGeometry>
        </mxCell>
        <mxCell id="biMLxc0D92DYTLY_nHQ8-11" value="" style="html=1;points=[];perimeter=orthogonalPerimeter;hachureGap=4;pointerEvents=0;" parent="biMLxc0D92DYTLY_nHQ8-2" vertex="1">
          <mxGeometry x="35" y="200" width="10" height="70" as="geometry" />
        </mxCell>
        <mxCell id="biMLxc0D92DYTLY_nHQ8-10" value="send back server.crt" style="html=1;verticalAlign=bottom;endArrow=block;startSize=14;endSize=14;sourcePerimeterSpacing=8;targetPerimeterSpacing=8;" parent="biMLxc0D92DYTLY_nHQ8-2" edge="1">
          <mxGeometry width="80" relative="1" as="geometry">
            <mxPoint x="240" y="200" as="sourcePoint" />
            <mxPoint x="40" y="200.0000000000001" as="targetPoint" />
          </mxGeometry>
        </mxCell>
        <mxCell id="biMLxc0D92DYTLY_nHQ8-4" value="CA(certificate authority)" style="shape=umlLifeline;perimeter=lifelinePerimeter;whiteSpace=wrap;html=1;container=1;collapsible=0;recursiveResize=0;outlineConnect=0;hachureGap=4;pointerEvents=0;" parent="1" vertex="1">
          <mxGeometry x="395" y="110" width="80" height="290" as="geometry" />
        </mxCell>
        <mxCell id="biMLxc0D92DYTLY_nHQ8-9" value="generate certificate &lt;br&gt;server.crt&lt;br&gt;by CA.key &lt;br&gt;(ca private key)" style="edgeStyle=orthogonalEdgeStyle;html=1;align=left;spacingLeft=2;endArrow=block;rounded=0;startSize=14;endSize=14;sourcePerimeterSpacing=8;targetPerimeterSpacing=8;" parent="biMLxc0D92DYTLY_nHQ8-4" edge="1">
          <mxGeometry relative="1" as="geometry">
            <mxPoint x="42" y="160" as="sourcePoint" />
            <Array as="points">
              <mxPoint x="67" y="160" />
              <mxPoint x="67" y="200" />
              <mxPoint x="42" y="200" />
            </Array>
            <mxPoint x="42" y="200" as="targetPoint" />
          </mxGeometry>
        </mxCell>
        <mxCell id="biMLxc0D92DYTLY_nHQ8-5" value="send server.csr" style="html=1;verticalAlign=bottom;endArrow=block;startSize=14;endSize=14;sourcePerimeterSpacing=8;targetPerimeterSpacing=8;" parent="1" edge="1">
          <mxGeometry width="80" relative="1" as="geometry">
            <mxPoint x="235" y="270" as="sourcePoint" />
            <mxPoint x="435" y="270" as="targetPoint" />
          </mxGeometry>
        </mxCell>
        <mxCell id="biMLxc0D92DYTLY_nHQ8-13" value="server.crt" style="swimlane;fontStyle=0;childLayout=stackLayout;horizontal=1;startSize=30;horizontalStack=0;resizeParent=1;resizeParentMax=0;resizeLast=0;collapsible=1;marginBottom=0;hachureGap=4;pointerEvents=0;fontSize=10;fontColor=#007FFF;" parent="1" vertex="1">
          <mxGeometry x="589" y="183" width="130" height="150" as="geometry">
            <mxRectangle x="640" y="210" width="70" height="30" as="alternateBounds" />
          </mxGeometry>
        </mxCell>
        <mxCell id="biMLxc0D92DYTLY_nHQ8-15" value="1. issuer and subject &#xa;(server info)" style="text;strokeColor=none;fillColor=none;align=left;verticalAlign=middle;spacingLeft=4;spacingRight=4;overflow=hidden;points=[[0,0.5],[1,0.5]];portConstraint=eastwest;rotatable=0;fontColor=#007FFF;fontSize=10;" parent="biMLxc0D92DYTLY_nHQ8-13" vertex="1">
          <mxGeometry y="30" width="130" height="30" as="geometry" />
        </mxCell>
        <mxCell id="biMLxc0D92DYTLY_nHQ8-35" value="&lt;div&gt;&lt;span&gt;&amp;nbsp; 2. server public key&lt;/span&gt;&lt;/div&gt;" style="rounded=0;whiteSpace=wrap;html=1;hachureGap=4;pointerEvents=0;fontSize=10;fontColor=#007FFF;align=left;" parent="biMLxc0D92DYTLY_nHQ8-13" vertex="1">
          <mxGeometry y="60" width="130" height="20" as="geometry" />
        </mxCell>
        <mxCell id="biMLxc0D92DYTLY_nHQ8-45" value="" style="endArrow=classic;html=1;fontSize=10;fontColor=#EA6B66;startSize=14;endSize=14;sourcePerimeterSpacing=8;targetPerimeterSpacing=8;" parent="biMLxc0D92DYTLY_nHQ8-13" edge="1">
          <mxGeometry width="50" height="50" relative="1" as="geometry">
            <mxPoint x="110" y="90" as="sourcePoint" />
            <mxPoint x="200" y="90" as="targetPoint" />
          </mxGeometry>
        </mxCell>
        <mxCell id="biMLxc0D92DYTLY_nHQ8-16" value="3. digital signature&#xa;generated from hashed &#xa;server info encrypted by &#xa;ca private key" style="text;strokeColor=none;fillColor=none;align=left;verticalAlign=middle;spacingLeft=4;spacingRight=4;overflow=hidden;points=[[0,0.5],[1,0.5]];portConstraint=eastwest;rotatable=0;fontSize=10;fontColor=#007FFF;" parent="biMLxc0D92DYTLY_nHQ8-13" vertex="1">
          <mxGeometry y="80" width="130" height="50" as="geometry" />
        </mxCell>
        <mxCell id="biMLxc0D92DYTLY_nHQ8-37" value="4. cipher set (sha256rsa)" style="text;strokeColor=default;fillColor=none;align=left;verticalAlign=middle;spacingLeft=4;spacingRight=4;overflow=hidden;points=[[0,0.5],[1,0.5]];portConstraint=eastwest;rotatable=0;fontSize=10;fontColor=#007FFF;" parent="biMLxc0D92DYTLY_nHQ8-13" vertex="1">
          <mxGeometry y="130" width="130" height="20" as="geometry" />
        </mxCell>
        <mxCell id="biMLxc0D92DYTLY_nHQ8-38" value="&lt;span style=&quot;text-align: left&quot;&gt;issuer and subject&lt;/span&gt;&lt;br style=&quot;padding: 0px ; margin: 0px ; text-align: left&quot;&gt;&lt;span style=&quot;text-align: left&quot;&gt;(server info)&lt;/span&gt;" style="rounded=0;whiteSpace=wrap;html=1;hachureGap=4;pointerEvents=0;fontSize=10;fontColor=#007FFF;strokeColor=default;" parent="1" vertex="1">
          <mxGeometry x="799" y="153" width="100" height="40" as="geometry" />
        </mxCell>
        <mxCell id="biMLxc0D92DYTLY_nHQ8-43" value="" style="edgeStyle=none;curved=1;rounded=0;orthogonalLoop=1;jettySize=auto;html=1;fontSize=10;fontColor=#EA6B66;endArrow=open;startSize=14;endSize=14;sourcePerimeterSpacing=8;targetPerimeterSpacing=8;" parent="1" source="biMLxc0D92DYTLY_nHQ8-39" target="biMLxc0D92DYTLY_nHQ8-38" edge="1">
          <mxGeometry relative="1" as="geometry" />
        </mxCell>
        <mxCell id="biMLxc0D92DYTLY_nHQ8-39" value="&lt;div style=&quot;text-align: left&quot;&gt;&lt;span&gt;hashed server info&lt;/span&gt;&lt;/div&gt;" style="rounded=0;whiteSpace=wrap;html=1;hachureGap=4;pointerEvents=0;fontSize=10;fontColor=#007FFF;strokeColor=default;" parent="1" vertex="1">
          <mxGeometry x="799" y="243" width="100" height="40" as="geometry" />
        </mxCell>
        <mxCell id="biMLxc0D92DYTLY_nHQ8-41" value="sha256/md5 hash" style="html=1;verticalAlign=bottom;endArrow=block;startSize=14;endSize=14;sourcePerimeterSpacing=8;targetPerimeterSpacing=8;fontSize=10;fontColor=#007FFF;" parent="1" edge="1">
          <mxGeometry width="80" relative="1" as="geometry">
            <mxPoint x="849" y="193" as="sourcePoint" />
            <mxPoint x="849" y="243" as="targetPoint" />
          </mxGeometry>
        </mxCell>
        <mxCell id="biMLxc0D92DYTLY_nHQ8-42" value="&lt;div style=&quot;text-align: left&quot;&gt;&lt;span&gt;digital signature&lt;/span&gt;&lt;/div&gt;" style="rounded=0;whiteSpace=wrap;html=1;hachureGap=4;pointerEvents=0;fontSize=10;fontColor=#007FFF;strokeColor=default;" parent="1" vertex="1">
          <mxGeometry x="799" y="337" width="100" height="40" as="geometry" />
        </mxCell>
        <mxCell id="biMLxc0D92DYTLY_nHQ8-44" value="encrypt by &lt;br&gt;ca private key" style="html=1;verticalAlign=bottom;endArrow=block;startSize=14;endSize=14;sourcePerimeterSpacing=8;targetPerimeterSpacing=8;fontSize=10;fontColor=#007FFF;entryX=0.5;entryY=0;entryDx=0;entryDy=0;" parent="1" target="biMLxc0D92DYTLY_nHQ8-42" edge="1">
          <mxGeometry x="0.2" width="80" relative="1" as="geometry">
            <mxPoint x="848" y="283" as="sourcePoint" />
            <mxPoint x="848" y="333" as="targetPoint" />
            <mxPoint as="offset" />
          </mxGeometry>
        </mxCell>
        <mxCell id="biMLxc0D92DYTLY_nHQ8-46" value="&lt;font color=&quot;#000000&quot;&gt;save server.key and server.crt&lt;br&gt;for pending http client access.&lt;br&gt;&lt;/font&gt;" style="text;html=1;strokeColor=none;fillColor=none;align=center;verticalAlign=middle;whiteSpace=wrap;rounded=0;hachureGap=4;pointerEvents=0;fontSize=10;fontColor=#007FFF;" parent="1" vertex="1">
          <mxGeometry x="145" y="320" width="80" height="60" as="geometry" />
        </mxCell>
        <mxCell id="biMLxc0D92DYTLY_nHQ8-57" value="&lt;font color=&quot;#000000&quot;&gt;Https Server&lt;/font&gt;" style="shape=umlLifeline;perimeter=lifelinePerimeter;whiteSpace=wrap;html=1;container=1;collapsible=0;recursiveResize=0;outlineConnect=0;hachureGap=4;pointerEvents=0;fontSize=10;fontColor=#007FFF;strokeColor=default;" parent="1" vertex="1">
          <mxGeometry x="193" y="450" width="80" height="480" as="geometry" />
        </mxCell>
        <mxCell id="biMLxc0D92DYTLY_nHQ8-90" value="decrypt premaster &lt;br&gt;secret and use it&lt;br&gt;with two random nums&lt;br&gt;to generate&amp;nbsp;master&lt;br&gt;secret(symmetric key)" style="edgeStyle=orthogonalEdgeStyle;html=1;align=left;spacingLeft=2;endArrow=block;rounded=0;startSize=14;endSize=14;sourcePerimeterSpacing=8;targetPerimeterSpacing=8;" parent="biMLxc0D92DYTLY_nHQ8-57" edge="1">
          <mxGeometry y="-116" relative="1" as="geometry">
            <mxPoint x="41" y="310" as="sourcePoint" />
            <Array as="points">
              <mxPoint x="16" y="310" />
              <mxPoint x="16" y="370" />
              <mxPoint x="41" y="370" />
            </Array>
            <mxPoint x="41" y="370" as="targetPoint" />
            <mxPoint as="offset" />
          </mxGeometry>
        </mxCell>
        <mxCell id="biMLxc0D92DYTLY_nHQ8-92" value="" style="html=1;points=[];perimeter=orthogonalPerimeter;hachureGap=4;pointerEvents=0;rounded=1;fontSize=10;fontColor=#007FFF;strokeColor=default;" parent="biMLxc0D92DYTLY_nHQ8-57" vertex="1">
          <mxGeometry x="35" y="390" width="10" height="60" as="geometry" />
        </mxCell>
        <mxCell id="biMLxc0D92DYTLY_nHQ8-58" value="&lt;font color=&quot;#000000&quot;&gt;Https Client&lt;br&gt;(explorer)&lt;br&gt;&lt;/font&gt;" style="shape=umlLifeline;perimeter=lifelinePerimeter;whiteSpace=wrap;html=1;container=1;collapsible=0;recursiveResize=0;outlineConnect=0;hachureGap=4;pointerEvents=0;fontSize=10;fontColor=#007FFF;strokeColor=default;" parent="1" vertex="1">
          <mxGeometry x="383" y="450" width="80" height="480" as="geometry" />
        </mxCell>
        <mxCell id="biMLxc0D92DYTLY_nHQ8-64" value="verify certificate&lt;br&gt;server.crt" style="edgeStyle=orthogonalEdgeStyle;html=1;align=left;spacingLeft=2;endArrow=block;rounded=0;startSize=14;endSize=14;sourcePerimeterSpacing=8;targetPerimeterSpacing=8;" parent="biMLxc0D92DYTLY_nHQ8-58" edge="1">
          <mxGeometry relative="1" as="geometry">
            <mxPoint x="40" y="190.0000000000001" as="sourcePoint" />
            <Array as="points">
              <mxPoint x="65" y="190" />
              <mxPoint x="65" y="230" />
              <mxPoint x="40" y="230" />
            </Array>
            <mxPoint x="40" y="230.0000000000001" as="targetPoint" />
          </mxGeometry>
        </mxCell>
        <mxCell id="biMLxc0D92DYTLY_nHQ8-88" value="generate premaster secret&lt;br&gt;and encrypt it by server &lt;br&gt;public key reserved &lt;br&gt;in server.crt" style="edgeStyle=orthogonalEdgeStyle;html=1;align=left;spacingLeft=2;endArrow=block;rounded=0;startSize=14;endSize=14;sourcePerimeterSpacing=8;targetPerimeterSpacing=8;" parent="biMLxc0D92DYTLY_nHQ8-58" edge="1">
          <mxGeometry relative="1" as="geometry">
            <mxPoint x="40" y="270" as="sourcePoint" />
            <Array as="points">
              <mxPoint x="65" y="270" />
              <mxPoint x="65" y="310" />
              <mxPoint x="40" y="310" />
            </Array>
            <mxPoint x="40" y="310" as="targetPoint" />
          </mxGeometry>
        </mxCell>
        <mxCell id="biMLxc0D92DYTLY_nHQ8-91" value="generate&amp;nbsp;master&lt;br&gt;secret(symmetric key)&lt;br&gt;by premaster secret&lt;br&gt;and two random nums" style="edgeStyle=orthogonalEdgeStyle;html=1;align=left;spacingLeft=2;endArrow=block;rounded=0;startSize=14;endSize=14;sourcePerimeterSpacing=8;targetPerimeterSpacing=8;" parent="biMLxc0D92DYTLY_nHQ8-58" edge="1">
          <mxGeometry relative="1" as="geometry">
            <mxPoint x="40" y="330" as="sourcePoint" />
            <Array as="points">
              <mxPoint x="65" y="330" />
              <mxPoint x="65" y="370" />
              <mxPoint x="40" y="370" />
            </Array>
            <mxPoint x="40" y="370" as="targetPoint" />
          </mxGeometry>
        </mxCell>
        <mxCell id="biMLxc0D92DYTLY_nHQ8-93" value="" style="html=1;points=[];perimeter=orthogonalPerimeter;hachureGap=4;pointerEvents=0;rounded=1;fontSize=10;fontColor=#007FFF;strokeColor=default;" parent="biMLxc0D92DYTLY_nHQ8-58" vertex="1">
          <mxGeometry x="35" y="390" width="10" height="60" as="geometry" />
        </mxCell>
        <mxCell id="biMLxc0D92DYTLY_nHQ8-60" value="&lt;font color=&quot;#000000&quot;&gt;socket connect&lt;/font&gt;" style="html=1;verticalAlign=bottom;endArrow=block;startSize=14;endSize=14;sourcePerimeterSpacing=8;targetPerimeterSpacing=8;fontSize=10;fontColor=#007FFF;exitX=0.5;exitY=0.267;exitDx=0;exitDy=0;exitPerimeter=0;" parent="1" edge="1">
          <mxGeometry width="80" relative="1" as="geometry">
            <mxPoint x="423" y="524.1000000000001" as="sourcePoint" />
            <mxPoint x="233" y="524" as="targetPoint" />
          </mxGeometry>
        </mxCell>
        <mxCell id="biMLxc0D92DYTLY_nHQ8-61" value="&lt;font color=&quot;#000000&quot;&gt;send cipher suits &lt;br&gt;(ssl/tls version,supported cipher...)&lt;/font&gt;" style="html=1;verticalAlign=bottom;endArrow=block;startSize=14;endSize=14;sourcePerimeterSpacing=8;targetPerimeterSpacing=8;fontSize=10;fontColor=#007FFF;" parent="1" target="biMLxc0D92DYTLY_nHQ8-57" edge="1">
          <mxGeometry width="80" relative="1" as="geometry">
            <mxPoint x="423" y="570" as="sourcePoint" />
            <mxPoint x="238" y="570" as="targetPoint" />
          </mxGeometry>
        </mxCell>
        <mxCell id="biMLxc0D92DYTLY_nHQ8-63" value="&lt;div style=&quot;text-align: left&quot;&gt;&lt;span style=&quot;color: rgb(0 , 0 , 0)&quot;&gt;send&lt;/span&gt;&lt;/div&gt;&lt;font color=&quot;#000000&quot;&gt;&lt;div style=&quot;text-align: left&quot;&gt;1. cipher suits&lt;br&gt;&lt;/div&gt;&lt;div style=&quot;text-align: left&quot;&gt;2. server.crt&lt;/div&gt;&lt;div style=&quot;text-align: left&quot;&gt;3. random num&lt;/div&gt;&lt;/font&gt;" style="html=1;verticalAlign=bottom;endArrow=block;startSize=14;endSize=14;sourcePerimeterSpacing=8;targetPerimeterSpacing=8;fontSize=10;fontColor=#007FFF;" parent="1" edge="1">
          <mxGeometry width="80" relative="1" as="geometry">
            <mxPoint x="232.81034482758628" y="639.66" as="sourcePoint" />
            <mxPoint x="423" y="639.66" as="targetPoint" />
          </mxGeometry>
        </mxCell>
        <mxCell id="biMLxc0D92DYTLY_nHQ8-65" value="&lt;div style=&quot;text-align: left&quot;&gt;&lt;span&gt;digital signature&lt;/span&gt;&lt;/div&gt;" style="rounded=0;whiteSpace=wrap;html=1;hachureGap=4;pointerEvents=0;fontSize=10;fontColor=#007FFF;strokeColor=default;" parent="1" vertex="1">
          <mxGeometry x="621" y="429" width="100" height="40" as="geometry" />
        </mxCell>
        <mxCell id="biMLxc0D92DYTLY_nHQ8-67" value="&lt;div style=&quot;text-align: left&quot;&gt;&lt;span&gt;CA.crt, saved&amp;nbsp;&lt;/span&gt;&lt;span&gt;in&amp;nbsp;&lt;/span&gt;&lt;/div&gt;&lt;div style=&quot;text-align: left&quot;&gt;&lt;span&gt;host running Client.&lt;/span&gt;&lt;/div&gt;&lt;div style=&quot;text-align: left&quot;&gt;type cmd, input certmgr.msc&lt;/div&gt;&lt;div style=&quot;text-align: left&quot;&gt;to check all root certificates&lt;/div&gt;" style="rounded=0;whiteSpace=wrap;html=1;hachureGap=4;pointerEvents=0;fontSize=10;fontColor=#007FFF;strokeColor=default;" parent="1" vertex="1">
          <mxGeometry x="784" y="472" width="130" height="50" as="geometry" />
        </mxCell>
        <mxCell id="biMLxc0D92DYTLY_nHQ8-66" value="&lt;div style=&quot;text-align: left&quot;&gt;&lt;span&gt;hashed server info&lt;/span&gt;&lt;/div&gt;" style="rounded=0;whiteSpace=wrap;html=1;hachureGap=4;pointerEvents=0;fontSize=10;fontColor=#007FFF;strokeColor=default;" parent="1" vertex="1">
          <mxGeometry x="621" y="529" width="100" height="40" as="geometry" />
        </mxCell>
        <mxCell id="biMLxc0D92DYTLY_nHQ8-70" value="decrypt by issuer(ca) public key &lt;br&gt;reserved in CA.crt" style="html=1;verticalAlign=bottom;endArrow=block;startSize=14;endSize=14;sourcePerimeterSpacing=8;targetPerimeterSpacing=8;fontSize=10;fontColor=#007FFF;" parent="1" edge="1">
          <mxGeometry x="0.3333" width="80" relative="1" as="geometry">
            <mxPoint x="670.66" y="469" as="sourcePoint" />
            <mxPoint x="670.66" y="529" as="targetPoint" />
            <mxPoint as="offset" />
          </mxGeometry>
        </mxCell>
        <mxCell id="biMLxc0D92DYTLY_nHQ8-71" value="" style="endArrow=classic;html=1;fontSize=10;fontColor=#EA6B66;startSize=14;endSize=14;sourcePerimeterSpacing=8;targetPerimeterSpacing=8;" parent="1" edge="1">
          <mxGeometry width="50" height="50" relative="1" as="geometry">
            <mxPoint x="746" y="489" as="sourcePoint" />
            <mxPoint x="779" y="489" as="targetPoint" />
          </mxGeometry>
        </mxCell>
        <mxCell id="biMLxc0D92DYTLY_nHQ8-74" value="&lt;div style=&quot;text-align: left&quot;&gt;&lt;span&gt;hashed server info&lt;/span&gt;&lt;/div&gt;" style="rounded=0;whiteSpace=wrap;html=1;hachureGap=4;pointerEvents=0;fontSize=10;fontColor=#007FFF;strokeColor=default;" parent="1" vertex="1">
          <mxGeometry x="621" y="619" width="100" height="40" as="geometry" />
        </mxCell>
        <mxCell id="biMLxc0D92DYTLY_nHQ8-75" value="&lt;div style=&quot;text-align: left&quot;&gt;&lt;span&gt;issuer and subject&lt;/span&gt;&lt;br&gt;&lt;/div&gt;&lt;div style=&quot;text-align: left&quot;&gt;&lt;span&gt;included in server.crt&lt;/span&gt;&lt;/div&gt;" style="rounded=0;whiteSpace=wrap;html=1;hachureGap=4;pointerEvents=0;fontSize=10;fontColor=#007FFF;strokeColor=default;" parent="1" vertex="1">
          <mxGeometry x="621" y="709" width="100" height="40" as="geometry" />
        </mxCell>
        <mxCell id="biMLxc0D92DYTLY_nHQ8-77" value="sha256/md5 hash" style="html=1;verticalAlign=bottom;endArrow=block;startSize=14;endSize=14;sourcePerimeterSpacing=8;targetPerimeterSpacing=8;fontSize=10;fontColor=#007FFF;" parent="1" edge="1">
          <mxGeometry x="-0.6" width="80" relative="1" as="geometry">
            <mxPoint x="670.66" y="709" as="sourcePoint" />
            <mxPoint x="670.66" y="659" as="targetPoint" />
            <mxPoint as="offset" />
          </mxGeometry>
        </mxCell>
        <mxCell id="biMLxc0D92DYTLY_nHQ8-78" value="compare both of them" style="shape=rhombus;perimeter=rhombusPerimeter;whiteSpace=wrap;html=1;align=center;hachureGap=4;pointerEvents=0;fontSize=10;fontColor=#007FFF;strokeColor=default;" parent="1" vertex="1">
          <mxGeometry x="741" y="569" width="120" height="50" as="geometry" />
        </mxCell>
        <mxCell id="biMLxc0D92DYTLY_nHQ8-79" value="" style="html=1;verticalAlign=bottom;endArrow=block;startSize=14;endSize=14;sourcePerimeterSpacing=8;targetPerimeterSpacing=8;fontSize=10;fontColor=#007FFF;entryX=0.5;entryY=0;entryDx=0;entryDy=0;" parent="1" target="biMLxc0D92DYTLY_nHQ8-78" edge="1">
          <mxGeometry width="80" relative="1" as="geometry">
            <mxPoint x="721" y="548.66" as="sourcePoint" />
            <mxPoint x="871" y="549" as="targetPoint" />
            <Array as="points">
              <mxPoint x="801" y="549" />
            </Array>
          </mxGeometry>
        </mxCell>
        <mxCell id="biMLxc0D92DYTLY_nHQ8-80" value="dispatch" style="html=1;verticalAlign=bottom;endArrow=block;startSize=14;endSize=14;sourcePerimeterSpacing=8;targetPerimeterSpacing=8;fontSize=10;fontColor=#007FFF;entryX=0.5;entryY=1;entryDx=0;entryDy=0;entryPerimeter=0;" parent="1" target="biMLxc0D92DYTLY_nHQ8-78" edge="1">
          <mxGeometry width="80" relative="1" as="geometry">
            <mxPoint x="721" y="639" as="sourcePoint" />
            <mxPoint x="861" y="639" as="targetPoint" />
            <Array as="points">
              <mxPoint x="801" y="639" />
            </Array>
          </mxGeometry>
        </mxCell>
        <mxCell id="biMLxc0D92DYTLY_nHQ8-81" value="&lt;div style=&quot;text-align: left&quot;&gt;check subject &#39;s CN(common name)&lt;/div&gt;&lt;div style=&quot;text-align: left&quot;&gt;is the same as domain name contained in URL&lt;/div&gt;" style="rounded=0;whiteSpace=wrap;html=1;hachureGap=4;pointerEvents=0;fontSize=10;fontColor=#007FFF;strokeColor=default;" parent="1" vertex="1">
          <mxGeometry x="849" y="644" width="100" height="65" as="geometry" />
        </mxCell>
        <mxCell id="biMLxc0D92DYTLY_nHQ8-82" value="if equal" style="html=1;verticalAlign=bottom;endArrow=block;startSize=14;endSize=14;sourcePerimeterSpacing=8;targetPerimeterSpacing=8;fontSize=10;fontColor=#007FFF;entryX=0.5;entryY=0;entryDx=0;entryDy=0;" parent="1" target="biMLxc0D92DYTLY_nHQ8-81" edge="1">
          <mxGeometry width="80" relative="1" as="geometry">
            <mxPoint x="859" y="593.66" as="sourcePoint" />
            <mxPoint x="939" y="593.66" as="targetPoint" />
            <Array as="points">
              <mxPoint x="899" y="594" />
            </Array>
          </mxGeometry>
        </mxCell>
        <mxCell id="biMLxc0D92DYTLY_nHQ8-83" value="&lt;div&gt;verify certificate fin&lt;/div&gt;" style="rounded=1;whiteSpace=wrap;html=1;hachureGap=4;pointerEvents=0;fontSize=10;fontColor=#007FFF;strokeColor=default;align=center;" parent="1" vertex="1">
          <mxGeometry x="849" y="749" width="102" height="35" as="geometry" />
        </mxCell>
        <mxCell id="biMLxc0D92DYTLY_nHQ8-84" value="" style="html=1;verticalAlign=bottom;endArrow=block;startSize=14;endSize=14;sourcePerimeterSpacing=8;targetPerimeterSpacing=8;fontSize=10;fontColor=#007FFF;" parent="1" edge="1">
          <mxGeometry width="80" relative="1" as="geometry">
            <mxPoint x="899.66" y="709" as="sourcePoint" />
            <mxPoint x="899.66" y="749" as="targetPoint" />
          </mxGeometry>
        </mxCell>
        <mxCell id="biMLxc0D92DYTLY_nHQ8-86" value="&lt;font color=&quot;#000000&quot;&gt;certificate verified&lt;br&gt;send client random num&lt;br&gt;&lt;/font&gt;" style="html=1;verticalAlign=bottom;endArrow=block;startSize=14;endSize=14;sourcePerimeterSpacing=8;targetPerimeterSpacing=8;fontSize=10;fontColor=#007FFF;" parent="1" edge="1">
          <mxGeometry width="80" relative="1" as="geometry">
            <mxPoint x="423.19" y="679.66" as="sourcePoint" />
            <mxPoint x="233.00034482758628" y="679.66" as="targetPoint" />
          </mxGeometry>
        </mxCell>
        <mxCell id="biMLxc0D92DYTLY_nHQ8-89" value="&lt;font color=&quot;#000000&quot;&gt;send&amp;nbsp; premaster secret&lt;/font&gt;" style="html=1;verticalAlign=bottom;endArrow=block;startSize=14;endSize=14;sourcePerimeterSpacing=8;targetPerimeterSpacing=8;fontSize=10;fontColor=#007FFF;" parent="1" edge="1">
          <mxGeometry width="80" relative="1" as="geometry">
            <mxPoint x="423.19000000000005" y="760" as="sourcePoint" />
            <mxPoint x="233.00034482758633" y="760" as="targetPoint" />
          </mxGeometry>
        </mxCell>
        <mxCell id="biMLxc0D92DYTLY_nHQ8-97" value="" style="rounded=0;whiteSpace=wrap;html=1;hachureGap=4;pointerEvents=0;fontSize=10;fontColor=#007FFF;strokeColor=default;fillColor=none;dashed=1;" parent="1" vertex="1">
          <mxGeometry x="598" y="421" width="370" height="368" as="geometry" />
        </mxCell>
        <mxCell id="biMLxc0D92DYTLY_nHQ8-98" value="" style="endArrow=classic;html=1;fontSize=10;fontColor=#007FFF;startSize=14;endSize=14;sourcePerimeterSpacing=8;targetPerimeterSpacing=8;" parent="1" edge="1">
          <mxGeometry width="50" height="50" relative="1" as="geometry">
            <mxPoint x="531" y="643" as="sourcePoint" />
            <mxPoint x="581" y="623" as="targetPoint" />
          </mxGeometry>
        </mxCell>
        <mxCell id="biMLxc0D92DYTLY_nHQ8-102" value="" style="endArrow=classic;html=1;fontSize=10;fontColor=#007FFF;startSize=14;endSize=14;sourcePerimeterSpacing=8;targetPerimeterSpacing=8;" parent="1" edge="1">
          <mxGeometry width="50" height="50" relative="1" as="geometry">
            <mxPoint x="520" y="250" as="sourcePoint" />
            <mxPoint x="570" y="230" as="targetPoint" />
          </mxGeometry>
        </mxCell>
        <mxCell id="biMLxc0D92DYTLY_nHQ8-104" value="Https Server certificate request" style="text;html=1;strokeColor=none;fillColor=none;align=center;verticalAlign=middle;whiteSpace=wrap;rounded=0;dashed=1;hachureGap=4;pointerEvents=0;fontSize=10;fontColor=#007FFF;" parent="1" vertex="1">
          <mxGeometry x="100" y="90" width="100" height="20" as="geometry" />
        </mxCell>
        <mxCell id="biMLxc0D92DYTLY_nHQ8-105" value="" style="rounded=0;whiteSpace=wrap;html=1;dashed=1;hachureGap=4;pointerEvents=0;fontSize=10;fontColor=#007FFF;strokeColor=default;fillColor=none;" parent="1" vertex="1">
          <mxGeometry x="88" y="413" width="900" height="623" as="geometry" />
        </mxCell>
        <mxCell id="biMLxc0D92DYTLY_nHQ8-106" value="Https Server/Client&lt;br&gt;SSL/TLS handshake" style="text;html=1;strokeColor=none;fillColor=none;align=center;verticalAlign=middle;whiteSpace=wrap;rounded=0;dashed=1;hachureGap=4;pointerEvents=0;fontSize=10;fontColor=#007FFF;" parent="1" vertex="1">
          <mxGeometry x="93" y="440" width="100" height="20" as="geometry" />
        </mxCell>
        <mxCell id="biMLxc0D92DYTLY_nHQ8-108" value="&lt;div&gt;1. p (a prime num)&lt;/div&gt;&lt;div&gt;2. g (2 or 5)&lt;/div&gt;&lt;div&gt;3. a (private num)&lt;/div&gt;" style="rounded=0;whiteSpace=wrap;html=1;hachureGap=4;pointerEvents=0;fontSize=10;fontColor=#007FFF;strokeColor=default;align=left;" parent="1" vertex="1">
          <mxGeometry x="644.5" y="842" width="88" height="40" as="geometry" />
        </mxCell>
        <mxCell id="biMLxc0D92DYTLY_nHQ8-109" value="&lt;div&gt;1. p (a prime num)&lt;/div&gt;&lt;div&gt;2. g (2 or 5)&lt;/div&gt;&lt;div&gt;3. b (private num)&lt;/div&gt;" style="rounded=0;whiteSpace=wrap;html=1;hachureGap=4;pointerEvents=0;fontSize=10;fontColor=#007FFF;strokeColor=default;align=left;" parent="1" vertex="1">
          <mxGeometry x="833.5" y="842" width="88" height="40" as="geometry" />
        </mxCell>
        <mxCell id="biMLxc0D92DYTLY_nHQ8-110" value="generate premaster secret using ECDH" style="text;html=1;strokeColor=none;fillColor=none;align=center;verticalAlign=middle;whiteSpace=wrap;rounded=0;dashed=1;hachureGap=4;pointerEvents=0;fontSize=10;fontColor=#007FFF;" parent="1" vertex="1">
          <mxGeometry x="598" y="806" width="104" height="20" as="geometry" />
        </mxCell>
        <mxCell id="biMLxc0D92DYTLY_nHQ8-111" value="&lt;div&gt;generate A&amp;nbsp;&lt;/div&gt;&lt;div&gt;by (p, g, a)&lt;/div&gt;&lt;div&gt;and send to peer&lt;/div&gt;" style="rounded=0;whiteSpace=wrap;html=1;hachureGap=4;pointerEvents=0;fontSize=10;fontColor=#007FFF;strokeColor=default;align=center;" parent="1" vertex="1">
          <mxGeometry x="644.5" y="911" width="88" height="40" as="geometry" />
        </mxCell>
        <mxCell id="biMLxc0D92DYTLY_nHQ8-112" value="&lt;div&gt;generate B&amp;nbsp;&lt;/div&gt;&lt;div&gt;by (p, g, b)&lt;/div&gt;&lt;div&gt;and send to peer&lt;br&gt;&lt;/div&gt;" style="rounded=0;whiteSpace=wrap;html=1;hachureGap=4;pointerEvents=0;fontSize=10;fontColor=#007FFF;strokeColor=default;align=center;" parent="1" vertex="1">
          <mxGeometry x="833.5" y="911" width="88" height="40" as="geometry" />
        </mxCell>
        <mxCell id="biMLxc0D92DYTLY_nHQ8-113" value="&lt;div&gt;get common key(premaster secret) by (p, a, B)&lt;/div&gt;" style="rounded=0;whiteSpace=wrap;html=1;hachureGap=4;pointerEvents=0;fontSize=10;fontColor=#007FFF;strokeColor=default;align=center;" parent="1" vertex="1">
          <mxGeometry x="644.5" y="980" width="88" height="40" as="geometry" />
        </mxCell>
        <mxCell id="biMLxc0D92DYTLY_nHQ8-114" value="get common key(premaster secret) by (p, b, A)" style="rounded=0;whiteSpace=wrap;html=1;hachureGap=4;pointerEvents=0;fontSize=10;fontColor=#007FFF;strokeColor=default;align=center;" parent="1" vertex="1">
          <mxGeometry x="833.5" y="980" width="88" height="40" as="geometry" />
        </mxCell>
        <mxCell id="biMLxc0D92DYTLY_nHQ8-115" value="" style="endArrow=block;startArrow=block;endFill=1;startFill=1;html=1;startSize=14;endSize=14;sourcePerimeterSpacing=8;targetPerimeterSpacing=8;fontSize=10;fontColor=#007FFF;" parent="1" edge="1">
          <mxGeometry width="160" relative="1" as="geometry">
            <mxPoint x="733.5" y="930.58" as="sourcePoint" />
            <mxPoint x="833.5" y="930.83" as="targetPoint" />
          </mxGeometry>
        </mxCell>
        <mxCell id="biMLxc0D92DYTLY_nHQ8-116" value="exchange A and B" style="edgeLabel;html=1;align=center;verticalAlign=middle;resizable=0;points=[];fontSize=10;fontColor=#007FFF;" parent="biMLxc0D92DYTLY_nHQ8-115" vertex="1" connectable="0">
          <mxGeometry x="-0.2354" y="-1" relative="1" as="geometry">
            <mxPoint x="17" y="-18" as="offset" />
          </mxGeometry>
        </mxCell>
        <mxCell id="biMLxc0D92DYTLY_nHQ8-118" value="" style="html=1;verticalAlign=bottom;endArrow=block;startSize=14;endSize=14;sourcePerimeterSpacing=8;targetPerimeterSpacing=8;fontSize=10;fontColor=#007FFF;" parent="1" edge="1">
          <mxGeometry width="80" relative="1" as="geometry">
            <mxPoint x="688.08" y="882" as="sourcePoint" />
            <mxPoint x="688.0799999999999" y="911" as="targetPoint" />
          </mxGeometry>
        </mxCell>
        <mxCell id="biMLxc0D92DYTLY_nHQ8-119" value="" style="html=1;verticalAlign=bottom;endArrow=block;startSize=14;endSize=14;sourcePerimeterSpacing=8;targetPerimeterSpacing=8;fontSize=10;fontColor=#007FFF;" parent="1" edge="1">
          <mxGeometry width="80" relative="1" as="geometry">
            <mxPoint x="877.0800000000002" y="882" as="sourcePoint" />
            <mxPoint x="877.0800000000002" y="911" as="targetPoint" />
          </mxGeometry>
        </mxCell>
        <mxCell id="biMLxc0D92DYTLY_nHQ8-120" value="" style="html=1;verticalAlign=bottom;endArrow=block;startSize=14;endSize=14;sourcePerimeterSpacing=8;targetPerimeterSpacing=8;fontSize=10;fontColor=#007FFF;" parent="1" edge="1">
          <mxGeometry width="80" relative="1" as="geometry">
            <mxPoint x="688.0800000000002" y="951" as="sourcePoint" />
            <mxPoint x="688.0800000000002" y="980" as="targetPoint" />
          </mxGeometry>
        </mxCell>
        <mxCell id="biMLxc0D92DYTLY_nHQ8-122" value="" style="html=1;verticalAlign=bottom;endArrow=block;startSize=14;endSize=14;sourcePerimeterSpacing=8;targetPerimeterSpacing=8;fontSize=10;fontColor=#007FFF;" parent="1" edge="1">
          <mxGeometry width="80" relative="1" as="geometry">
            <mxPoint x="877.0799999999999" y="951" as="sourcePoint" />
            <mxPoint x="877.0799999999999" y="980" as="targetPoint" />
          </mxGeometry>
        </mxCell>
        <mxCell id="biMLxc0D92DYTLY_nHQ8-124" value="" style="endArrow=classic;html=1;fontSize=10;fontColor=#007FFF;startSize=14;endSize=14;sourcePerimeterSpacing=8;targetPerimeterSpacing=8;" parent="1" edge="1">
          <mxGeometry width="50" height="50" relative="1" as="geometry">
            <mxPoint x="547" y="756" as="sourcePoint" />
            <mxPoint x="589" y="806" as="targetPoint" />
          </mxGeometry>
        </mxCell>
        <mxCell id="IulpB0IkQ2e_PBXTS8TF-5" value="&lt;font color=&quot;#000000&quot;&gt;CIPConnection&lt;/font&gt;" style="shape=umlLifeline;perimeter=lifelinePerimeter;whiteSpace=wrap;html=1;container=1;collapsible=0;recursiveResize=0;outlineConnect=0;hachureGap=4;pointerEvents=0;fontSize=10;fontColor=#007FFF;strokeColor=default;" vertex="1" parent="1">
          <mxGeometry x="1440" y="-40" width="80" height="480" as="geometry" />
        </mxCell>
        <mxCell id="IulpB0IkQ2e_PBXTS8TF-29" value="&lt;font color=&quot;#000000&quot;&gt;Listen&amp;nbsp; &amp;nbsp; &amp;nbsp; &amp;nbsp; &amp;nbsp; &amp;nbsp; &amp;nbsp; &amp;nbsp;&lt;/font&gt;" style="html=1;points=[];perimeter=orthogonalPerimeter;hachureGap=4;pointerEvents=0;rounded=1;fontSize=10;fontColor=#007FFF;strokeColor=default;" vertex="1" parent="IulpB0IkQ2e_PBXTS8TF-5">
          <mxGeometry x="35" y="50" width="10" height="42.5" as="geometry" />
        </mxCell>
        <mxCell id="IulpB0IkQ2e_PBXTS8TF-32" value="" style="html=1;points=[];perimeter=orthogonalPerimeter;hachureGap=4;pointerEvents=0;rounded=1;fontSize=10;fontColor=#007FFF;strokeColor=default;" vertex="1" parent="IulpB0IkQ2e_PBXTS8TF-5">
          <mxGeometry x="35" y="121" width="10" height="149" as="geometry" />
        </mxCell>
        <mxCell id="IulpB0IkQ2e_PBXTS8TF-17" value="connect to server" style="html=1;verticalAlign=bottom;endArrow=blockThin;startSize=14;endSize=14;sourcePerimeterSpacing=8;targetPerimeterSpacing=8;endFill=1;exitX=0.32;exitY=0.003;exitDx=0;exitDy=0;exitPerimeter=0;" edge="1" parent="IulpB0IkQ2e_PBXTS8TF-5" source="IulpB0IkQ2e_PBXTS8TF-7">
          <mxGeometry width="80" relative="1" as="geometry">
            <mxPoint x="-124.5" y="120" as="sourcePoint" />
            <mxPoint x="35" y="120.00000000000011" as="targetPoint" />
          </mxGeometry>
        </mxCell>
        <mxCell id="IulpB0IkQ2e_PBXTS8TF-8" value="&lt;span style=&quot;color: rgb(0 , 0 , 0) ; text-align: left&quot;&gt;POS / Http Client&lt;/span&gt;" style="shape=umlLifeline;perimeter=lifelinePerimeter;whiteSpace=wrap;html=1;container=1;collapsible=0;recursiveResize=0;outlineConnect=0;hachureGap=4;pointerEvents=0;fontSize=10;fontColor=#007FFF;strokeColor=default;" vertex="1" parent="1">
          <mxGeometry x="1280" y="-40" width="80" height="480" as="geometry" />
        </mxCell>
        <mxCell id="IulpB0IkQ2e_PBXTS8TF-7" value="" style="html=1;points=[];perimeter=orthogonalPerimeter;hachureGap=4;pointerEvents=0;rounded=1;fontSize=10;fontColor=#007FFF;strokeColor=default;" vertex="1" parent="IulpB0IkQ2e_PBXTS8TF-8">
          <mxGeometry x="35" y="119" width="10" height="231" as="geometry" />
        </mxCell>
        <mxCell id="IulpB0IkQ2e_PBXTS8TF-35" value="&lt;font style=&quot;font-size: 10px&quot;&gt;ACK&lt;/font&gt;" style="html=1;verticalAlign=bottom;endArrow=blockThin;startSize=14;endSize=14;sourcePerimeterSpacing=8;targetPerimeterSpacing=8;endFill=1;dashed=1;exitX=0.038;exitY=0.131;exitDx=0;exitDy=0;exitPerimeter=0;" edge="1" parent="IulpB0IkQ2e_PBXTS8TF-8" source="IulpB0IkQ2e_PBXTS8TF-32">
          <mxGeometry x="-0.0031" width="80" relative="1" as="geometry">
            <mxPoint x="190" y="143" as="sourcePoint" />
            <mxPoint x="45" y="143" as="targetPoint" />
            <mxPoint as="offset" />
          </mxGeometry>
        </mxCell>
        <mxCell id="IulpB0IkQ2e_PBXTS8TF-9" value="decrypt premaster &lt;br&gt;secret and use it&lt;br&gt;with two random nums&lt;br&gt;to generate&amp;nbsp;master&lt;br&gt;secret(symmetric key)" style="edgeStyle=orthogonalEdgeStyle;html=1;align=left;spacingLeft=2;endArrow=block;rounded=0;startSize=14;endSize=14;sourcePerimeterSpacing=8;targetPerimeterSpacing=8;" edge="1" parent="1">
          <mxGeometry y="-116" relative="1" as="geometry">
            <mxPoint x="1355" y="600" as="sourcePoint" />
            <Array as="points">
              <mxPoint x="1330" y="600" />
              <mxPoint x="1330" y="660" />
              <mxPoint x="1355" y="660" />
            </Array>
            <mxPoint x="1355" y="660" as="targetPoint" />
            <mxPoint as="offset" />
          </mxGeometry>
        </mxCell>
        <mxCell id="IulpB0IkQ2e_PBXTS8TF-11" value="&lt;font color=&quot;#000000&quot;&gt;CThreadPoolServer/&lt;br&gt;CPosThreadPoolClient&lt;/font&gt;" style="shape=umlLifeline;perimeter=lifelinePerimeter;whiteSpace=wrap;html=1;container=1;collapsible=0;recursiveResize=0;outlineConnect=0;hachureGap=4;pointerEvents=0;fontSize=10;fontColor=#007FFF;strokeColor=default;" vertex="1" parent="1">
          <mxGeometry x="1586" y="-40" width="106" height="480" as="geometry" />
        </mxCell>
        <mxCell id="IulpB0IkQ2e_PBXTS8TF-22" value="&lt;font color=&quot;#000000&quot;&gt;&amp;nbsp; &amp;nbsp; &amp;nbsp; &amp;nbsp; &amp;nbsp; &amp;nbsp; &amp;nbsp;Start&lt;/font&gt;" style="html=1;points=[];perimeter=orthogonalPerimeter;hachureGap=4;pointerEvents=0;rounded=1;fontSize=10;fontColor=#007FFF;strokeColor=default;" vertex="1" parent="IulpB0IkQ2e_PBXTS8TF-11">
          <mxGeometry x="48" y="150" width="10" height="50" as="geometry" />
        </mxCell>
        <mxCell id="IulpB0IkQ2e_PBXTS8TF-44" value="&lt;font color=&quot;#000000&quot;&gt;&amp;nbsp; &amp;nbsp; &amp;nbsp; &amp;nbsp; &amp;nbsp; &amp;nbsp; &amp;nbsp;Run &lt;br&gt;&amp;nbsp; &amp;nbsp; &amp;nbsp; &amp;nbsp; &amp;nbsp; &amp;nbsp; &amp;nbsp; state&lt;br&gt;&amp;nbsp; &amp;nbsp; &amp;nbsp; &amp;nbsp; &amp;nbsp; &amp;nbsp; &amp;nbsp; &amp;nbsp; &amp;nbsp; &amp;nbsp; machine&lt;/font&gt;" style="html=1;points=[];perimeter=orthogonalPerimeter;hachureGap=4;pointerEvents=0;rounded=1;fontSize=10;fontColor=#007FFF;strokeColor=default;" vertex="1" parent="IulpB0IkQ2e_PBXTS8TF-11">
          <mxGeometry x="48" y="308" width="10" height="81" as="geometry" />
        </mxCell>
        <mxCell id="IulpB0IkQ2e_PBXTS8TF-12" value="&lt;span style=&quot;color: rgb(0 , 0 , 0) ; text-align: left&quot;&gt;POS / Http Client&lt;/span&gt;" style="shape=umlLifeline;perimeter=lifelinePerimeter;whiteSpace=wrap;html=1;container=1;collapsible=0;recursiveResize=0;outlineConnect=0;hachureGap=4;pointerEvents=0;fontSize=10;fontColor=#007FFF;strokeColor=default;" vertex="1" parent="1">
          <mxGeometry x="1760" y="-39" width="80" height="480" as="geometry" />
        </mxCell>
        <mxCell id="IulpB0IkQ2e_PBXTS8TF-13" value="&lt;span style=&quot;color: rgb(0 , 0 , 0) ; text-align: left&quot;&gt;POS / Http Client&lt;/span&gt;" style="shape=umlLifeline;perimeter=lifelinePerimeter;whiteSpace=wrap;html=1;container=1;collapsible=0;recursiveResize=0;outlineConnect=0;hachureGap=4;pointerEvents=0;fontSize=10;fontColor=#007FFF;strokeColor=default;" vertex="1" parent="1">
          <mxGeometry x="1920" y="-40" width="80" height="480" as="geometry" />
        </mxCell>
        <mxCell id="IulpB0IkQ2e_PBXTS8TF-14" value="&lt;span style=&quot;color: rgb(0 , 0 , 0) ; text-align: left&quot;&gt;POS / Http Client&lt;/span&gt;" style="shape=umlLifeline;perimeter=lifelinePerimeter;whiteSpace=wrap;html=1;container=1;collapsible=0;recursiveResize=0;outlineConnect=0;hachureGap=4;pointerEvents=0;fontSize=10;fontColor=#007FFF;strokeColor=default;" vertex="1" parent="1">
          <mxGeometry x="2080" y="-40" width="80" height="480" as="geometry" />
        </mxCell>
        <mxCell id="IulpB0IkQ2e_PBXTS8TF-16" value="&lt;div style=&quot;text-align: left&quot;&gt;&lt;span&gt;&lt;font color=&quot;#000000&quot;&gt;CDirectedThreadPoolQueue&lt;/font&gt;&lt;/span&gt;&lt;/div&gt;" style="shape=umlLifeline;perimeter=lifelinePerimeter;whiteSpace=wrap;html=1;container=1;collapsible=0;recursiveResize=0;outlineConnect=0;hachureGap=4;pointerEvents=0;fontSize=10;fontColor=#007FFF;strokeColor=default;" vertex="1" parent="1">
          <mxGeometry x="1496" y="-103" width="130" height="544" as="geometry" />
        </mxCell>
        <mxCell id="IulpB0IkQ2e_PBXTS8TF-20" value="&lt;font&gt;&lt;font style=&quot;font-size: 9px&quot;&gt;WaitForRequest&lt;/font&gt;&lt;br&gt;&lt;/font&gt;" style="html=1;verticalAlign=bottom;endArrow=blockThin;startSize=14;endSize=14;sourcePerimeterSpacing=8;targetPerimeterSpacing=8;endFill=1;exitX=0.491;exitY=0.167;exitDx=0;exitDy=0;exitPerimeter=0;" edge="1" parent="IulpB0IkQ2e_PBXTS8TF-16">
          <mxGeometry x="0.0002" y="-2" width="80" relative="1" as="geometry">
            <mxPoint x="144.01000000000022" y="263.1600000000001" as="sourcePoint" />
            <mxPoint x="64" y="263" as="targetPoint" />
            <mxPoint as="offset" />
          </mxGeometry>
        </mxCell>
        <mxCell id="IulpB0IkQ2e_PBXTS8TF-21" value="&lt;font style=&quot;font-size: 10px&quot;&gt;GetRequest&lt;/font&gt;" style="html=1;verticalAlign=bottom;endArrow=blockThin;startSize=14;endSize=14;sourcePerimeterSpacing=8;targetPerimeterSpacing=8;endFill=1;dashed=1;" edge="1" parent="IulpB0IkQ2e_PBXTS8TF-16">
          <mxGeometry width="80" relative="1" as="geometry">
            <mxPoint x="65" y="371.0000000000001" as="sourcePoint" />
            <mxPoint x="139" y="371" as="targetPoint" />
            <mxPoint as="offset" />
          </mxGeometry>
        </mxCell>
        <mxCell id="IulpB0IkQ2e_PBXTS8TF-6" value="generate new &lt;br&gt;session ID" style="edgeStyle=orthogonalEdgeStyle;html=1;align=left;spacingLeft=2;endArrow=blockThin;rounded=0;startSize=14;endSize=14;sourcePerimeterSpacing=8;targetPerimeterSpacing=8;endFill=1;" edge="1" parent="IulpB0IkQ2e_PBXTS8TF-16">
          <mxGeometry y="-56" relative="1" as="geometry">
            <mxPoint x="-21" y="285" as="sourcePoint" />
            <Array as="points">
              <mxPoint x="-46" y="285" />
              <mxPoint x="-46" y="325" />
              <mxPoint x="-21" y="325" />
            </Array>
            <mxPoint x="-21" y="325" as="targetPoint" />
            <mxPoint as="offset" />
          </mxGeometry>
        </mxCell>
        <mxCell id="IulpB0IkQ2e_PBXTS8TF-18" value="&lt;font style=&quot;font-size: 10px&quot;&gt;PostRequest&lt;/font&gt;" style="html=1;verticalAlign=bottom;endArrow=blockThin;startSize=14;endSize=14;sourcePerimeterSpacing=8;targetPerimeterSpacing=8;endFill=1;" edge="1" parent="IulpB0IkQ2e_PBXTS8TF-16">
          <mxGeometry y="-19" width="80" relative="1" as="geometry">
            <mxPoint x="-16" y="333" as="sourcePoint" />
            <mxPoint x="64" y="333" as="targetPoint" />
            <mxPoint as="offset" />
          </mxGeometry>
        </mxCell>
        <mxCell id="IulpB0IkQ2e_PBXTS8TF-19" value="" style="html=1;points=[];perimeter=orthogonalPerimeter;hachureGap=4;pointerEvents=0;rounded=1;fontSize=10;fontColor=#007FFF;strokeColor=default;" vertex="1" parent="IulpB0IkQ2e_PBXTS8TF-16">
          <mxGeometry x="60" y="332.5" width="10" height="38.5" as="geometry" />
        </mxCell>
        <mxCell id="IulpB0IkQ2e_PBXTS8TF-42" value="" style="edgeStyle=orthogonalEdgeStyle;html=1;align=left;spacingLeft=2;endArrow=blockThin;rounded=0;startSize=14;endSize=14;sourcePerimeterSpacing=8;targetPerimeterSpacing=8;endFill=1;dashed=1;" edge="1" parent="IulpB0IkQ2e_PBXTS8TF-16">
          <mxGeometry x="0.0036" relative="1" as="geometry">
            <mxPoint x="-16" y="333" as="sourcePoint" />
            <Array as="points">
              <mxPoint x="10" y="333" />
              <mxPoint x="10" y="134" />
              <mxPoint x="-9" y="134" />
            </Array>
            <mxPoint x="-16" y="134" as="targetPoint" />
            <mxPoint as="offset" />
          </mxGeometry>
        </mxCell>
        <mxCell id="IulpB0IkQ2e_PBXTS8TF-36" value="&lt;font style=&quot;font-size: 10px&quot;&gt;SSL handshake &amp;amp; Authentication&lt;/font&gt;" style="html=1;verticalAlign=bottom;endArrow=blockThin;startSize=14;endSize=14;sourcePerimeterSpacing=8;targetPerimeterSpacing=8;endFill=1;exitX=0.944;exitY=0.173;exitDx=0;exitDy=0;exitPerimeter=0;" edge="1" parent="1">
          <mxGeometry width="80" relative="1" as="geometry">
            <mxPoint x="1324.44" y="136.54999999999995" as="sourcePoint" />
            <mxPoint x="1475" y="137" as="targetPoint" />
          </mxGeometry>
        </mxCell>
        <mxCell id="IulpB0IkQ2e_PBXTS8TF-39" value="&lt;font style=&quot;font-size: 10px&quot;&gt;SSL handshake &amp;amp; Authentication&lt;/font&gt;" style="html=1;verticalAlign=bottom;endArrow=blockThin;startSize=14;endSize=14;sourcePerimeterSpacing=8;targetPerimeterSpacing=8;endFill=1;exitX=-0.057;exitY=0.523;exitDx=0;exitDy=0;exitPerimeter=0;" edge="1" parent="1" source="IulpB0IkQ2e_PBXTS8TF-32">
          <mxGeometry width="80" relative="1" as="geometry">
            <mxPoint x="1470" y="159.42000000000007" as="sourcePoint" />
            <mxPoint x="1325" y="159" as="targetPoint" />
          </mxGeometry>
        </mxCell>
        <mxCell id="IulpB0IkQ2e_PBXTS8TF-37" value="send request" style="html=1;verticalAlign=bottom;endArrow=blockThin;startSize=14;endSize=14;sourcePerimeterSpacing=8;targetPerimeterSpacing=8;endFill=1;entryX=0.043;entryY=0.508;entryDx=0;entryDy=0;entryPerimeter=0;" edge="1" parent="1">
          <mxGeometry width="80" relative="1" as="geometry">
            <mxPoint x="1320.0238095238094" y="310.1479999999999" as="sourcePoint" />
            <mxPoint x="1634.4300000000003" y="310.1479999999999" as="targetPoint" />
          </mxGeometry>
        </mxCell>
      </root>
    </mxGraphModel>
  </diagram>
</mxfile>
